<svg width="768" height="768" viewBox="0 0 768 768" fill="none" xmlns="http://www.w3.org/2000/svg">
<g clip-path="url(#clip0_7_175)">
<circle cx="384" cy="384" r="384" fill="white"/>
<path d="M562.082 235C596.917 275.818 618 329.095 618 387.379C618 515.852 515.563 620 389.2 620C326.821 620 270.273 594.621 229 553.464M229 553.464V593.253M229 553.464H268.257" stroke="black" stroke-width="20" stroke-linecap="round"/>
<path d="M205.918 531C171.083 490.288 150 437.149 150 379.017C150 250.877 252.437 147 378.8 147C441.179 147 497.727 172.313 539 213.363M539 213.363V173.678M539 213.363H499.743" stroke="black" stroke-width="20" stroke-linecap="round"/>
<rect x="474.401" y="476.156" width="158.599" height="161.844" rx="32" fill="black"/>
<path d="M521.188 601.585V590.21C521.188 588.001 522.979 586.21 525.188 586.21H582.213C584.422 586.21 586.213 588.001 586.213 590.21V601.585" stroke="#00FF59" stroke-width="14"/>
<path d="M521.188 601.585V590.21C521.188 588.001 522.979 586.21 525.188 586.21H582.213C584.422 586.21 586.213 588.001 586.213 590.21V601.585" stroke="#FF0000" stroke-width="14"/>
<path d="M553.701 520.38C565.03 520.38 574.455 529.792 574.456 541.702C574.456 553.613 565.03 563.025 553.701 563.025C542.371 563.025 532.946 553.613 532.946 541.702C532.946 529.792 542.371 520.38 553.701 520.38Z" stroke="#00FF59" stroke-width="14"/>
<path d="M553.701 520.38C565.03 520.38 574.455 529.792 574.456 541.702C574.456 553.613 565.03 563.025 553.701 563.025C542.371 563.025 532.946 553.613 532.946 541.702C532.946 529.792 542.371 520.38 553.701 520.38Z" stroke="#FF0000" stroke-width="14"/>
<rect x="135" y="129.809" width="158.599" height="161.844" rx="32" fill="black"/>
<path d="M181.787 255.238V243.863C181.787 241.654 183.577 239.863 185.787 239.863H242.812C245.021 239.863 246.812 241.654 246.812 243.863V255.238" stroke="#00FF59" stroke-width="14"/>
<path d="M181.787 255.238V243.863C181.787 241.654 183.577 239.863 185.787 239.863H242.812C245.021 239.863 246.812 241.654 246.812 243.863V255.238" stroke="#00FF59" stroke-width="14"/>
<path d="M214.299 174.033C225.629 174.033 235.054 183.445 235.054 195.356C235.054 207.266 225.629 216.679 214.299 216.679C202.97 216.679 193.545 207.266 193.545 195.356C193.545 183.445 202.97 174.033 214.299 174.033Z" stroke="#00FF59" stroke-width="14"/>
<path d="M214.299 174.033C225.629 174.033 235.054 183.445 235.054 195.356C235.054 207.266 225.629 216.679 214.299 216.679C202.97 216.679 193.545 207.266 193.545 195.356C193.545 183.445 202.97 174.033 214.299 174.033Z" stroke="#00FF59" stroke-width="14"/>
<path d="M336.5 462.167C332.301 462.167 328.273 460.499 325.304 457.529C322.335 454.56 320.667 450.533 320.667 446.333V319.667C320.667 315.467 322.335 311.44 325.304 308.471C328.273 305.501 332.301 303.833 336.5 303.833H399.833C402.339 303.829 404.821 304.321 407.137 305.28C409.452 306.239 411.554 307.647 413.323 309.423L441.728 337.828C443.508 339.597 444.92 341.701 445.882 344.02C446.844 346.338 447.337 348.824 447.333 351.333V446.333C447.333 450.533 445.665 454.56 442.696 457.529C439.726 460.499 435.699 462.167 431.5 462.167H336.5Z" stroke="black" stroke-width="20" stroke-linecap="round" stroke-linejoin="round"/>
<path d="M399.833 303.833V343.417C399.833 345.516 400.667 347.53 402.152 349.015C403.637 350.499 405.65 351.333 407.75 351.333H447.333" stroke="black" stroke-width="20" stroke-linecap="round" stroke-linejoin="round"/>
</g>
<defs>
<clipPath id="clip0_7_175">
<rect width="768" height="768" fill="white"/>
</clipPath>
</defs>
</svg>
